<?xml version="1.0" encoding="utf-8"?>
<!-- Generator: Adobe Illustrator 16.0.0, SVG Export Plug-In . SVG Version: 6.00 Build 0)  -->
<!DOCTYPE svg PUBLIC "-//W3C//DTD SVG 1.1//EN" "http://www.w3.org/Graphics/SVG/1.1/DTD/svg11.dtd">
<svg version="1.1" id="Layer_1" xmlns="http://www.w3.org/2000/svg" xmlns:xlink="http://www.w3.org/1999/xlink" x="0px" y="0px"
	 width="22px" height="22px" viewBox="0 0 22 22" enable-background="new 0 0 22 22" xml:space="preserve">
<g>
	<g>
		<path d="M11,11.377c-4.971,0-9-1.453-9-3.244v2.791c0,1.792,4.029,3.244,9,3.244s9-1.452,9-3.244V8.133
			C20,9.924,15.971,11.377,11,11.377z"/>
	</g>
	<g>
		<path d="M11,16.209c-4.971,0-9-1.453-9-3.245v2.792C2,17.547,6.029,19,11,19s9-1.453,9-3.244v-2.792
			C20,14.756,15.971,16.209,11,16.209z"/>
	</g>
	<g>
		<ellipse cx="11" cy="6.245" rx="9" ry="3.245"/>
	</g>
</g>
</svg>
