<?xml version="1.0" encoding="utf-8"?>
<!-- Generator: Adobe Illustrator 16.0.0, SVG Export Plug-In . SVG Version: 6.00 Build 0)  -->
<!DOCTYPE svg PUBLIC "-//W3C//DTD SVG 1.1//EN" "http://www.w3.org/Graphics/SVG/1.1/DTD/svg11.dtd">
<svg version="1.1" id="Layer_1" xmlns="http://www.w3.org/2000/svg" xmlns:xlink="http://www.w3.org/1999/xlink" x="0px" y="0px"
	 width="22px" height="22px" viewBox="0 0 22 22" enable-background="new 0 0 22 22" xml:space="preserve">
<g>
	<path d="M14,8c0.165-0.016,1.331-0.025,1.5-0.025S15.835,7.984,16,8V2H8v0.551L7.449,2L2,7.449L2.551,8H2v11h7
		c-0.163-0.316,0.1-1.651,0-2H4v-7h6V4h4V8z M8,8H4.277L8,4.277V8z"/>
	<polygon points="16,14 16,11 14,11 14,14 11,14 11,16 14,16 14,19 16,19 16,16 19,16 19,14 	"/>
</g>
</svg>
