<?xml version="1.0" encoding="utf-8"?>
<!-- Generator: Adobe Illustrator 16.0.0, SVG Export Plug-In . SVG Version: 6.00 Build 0)  -->
<!DOCTYPE svg PUBLIC "-//W3C//DTD SVG 1.1//EN" "http://www.w3.org/Graphics/SVG/1.1/DTD/svg11.dtd">
<svg version="1.1" id="Layer_1" xmlns="http://www.w3.org/2000/svg" xmlns:xlink="http://www.w3.org/1999/xlink" x="0px" y="0px"
	 width="18px" height="18px" viewBox="0 0 18 18" enable-background="new 0 0 18 18" xml:space="preserve">
<g>
	<g>
		<path d="M9,9.377c-4.418,0-8-1.453-8-3.244v2.791c0,1.792,3.582,3.244,8,3.244s8-1.452,8-3.244V6.133
			C17,7.924,13.418,9.377,9,9.377z"/>
	</g>
	<g>
		<path d="M9,14.209c-4.418,0-8-1.453-8-3.245v2.792C1,15.547,4.582,17,9,17s8-1.453,8-3.244v-2.792
			C17,12.756,13.418,14.209,9,14.209z"/>
	</g>
	<g>
		<ellipse cx="9" cy="4.245" rx="8" ry="3.245"/>
	</g>
</g>
</svg>
