<?xml version="1.0" encoding="utf-8"?>
<!-- Generator: Adobe Illustrator 16.0.0, SVG Export Plug-In . SVG Version: 6.00 Build 0)  -->
<!DOCTYPE svg PUBLIC "-//W3C//DTD SVG 1.1//EN" "http://www.w3.org/Graphics/SVG/1.1/DTD/svg11.dtd">
<svg version="1.1" id="Layer_1" xmlns="http://www.w3.org/2000/svg" xmlns:xlink="http://www.w3.org/1999/xlink" x="0px" y="0px"
	 width="48px" height="48px" viewBox="0 0 48 48" enable-background="new 0 0 48 48" xml:space="preserve">
<g>
	<path d="M8,8v32h32V8H8z M28,10v6h-8v-6H28z M10,10h8v6h-8V10z M10,38V18h8v20H10z M20,38V18h8v20H20z M38,38h-8V18h8V38z M38,16
		h-8v-6h8V16z"/>
	<rect x="12" y="22" width="4" height="2"/>
	<rect x="12" y="28" width="4" height="2"/>
	<rect x="22" y="22" width="4" height="2"/>
	<rect x="22" y="28" width="4" height="2"/>
	<rect x="32" y="22" width="4" height="2"/>
	<rect x="32" y="28" width="4" height="2"/>
</g>
</svg>
