<?xml version="1.0" encoding="utf-8"?>
<!-- Generator: Adobe Illustrator 16.0.0, SVG Export Plug-In . SVG Version: 6.00 Build 0)  -->
<!DOCTYPE svg PUBLIC "-//W3C//DTD SVG 1.1//EN" "http://www.w3.org/Graphics/SVG/1.1/DTD/svg11.dtd">
<svg version="1.1" id="Layer_1" xmlns="http://www.w3.org/2000/svg" xmlns:xlink="http://www.w3.org/1999/xlink" x="0px" y="0px"
	 width="48px" height="48px" viewBox="0 0 48 48" enable-background="new 0 0 48 48" xml:space="preserve">
<g>
	<g>
		<path d="M8,8v32h32V8H8z M38,38H10V10h28V38z"/>
	</g>
	<g>
		<path d="M31,21c0-3.87-3.129-7-7-7c-3.87,0-7,3.13-7,7c0,5.25,7,13,7,13S31,26.25,31,21z M24,16c2.757,0,5,2.243,5,5
			c0,2.877-2.885,7.188-4.997,9.878C21.92,28.213,19,23.852,19,21C19,18.243,21.243,16,24,16z"/>
	</g>
	<g>
		<circle cx="24" cy="21.571" r="2"/>
	</g>
</g>
</svg>
