<?xml version="1.0" encoding="utf-8"?>
<!-- Generator: Adobe Illustrator 16.0.0, SVG Export Plug-In . SVG Version: 6.00 Build 0)  -->
<!DOCTYPE svg PUBLIC "-//W3C//DTD SVG 1.1//EN" "http://www.w3.org/Graphics/SVG/1.1/DTD/svg11.dtd">
<svg version="1.1" id="Layer_1" xmlns="http://www.w3.org/2000/svg" xmlns:xlink="http://www.w3.org/1999/xlink" x="0px" y="0px"
	 width="48px" height="48px" viewBox="0 0 48 48" enable-background="new 0 0 48 48" xml:space="preserve">
<path d="M26.111,15.5c-5.146,0-9.333,3.813-9.333,8.5s4.187,8.5,9.333,8.5c2.068,0,4.027-0.603,5.664-1.743l-1.143-1.641
	c-1.301,0.905-2.863,1.384-4.521,1.384c-4.043,0-7.333-2.916-7.333-6.5s3.29-6.5,7.333-6.5c4.015,0,7.286,2.875,7.332,6.424
	c-0.078,0.431-0.606,2.451-3.582,2.451c-0.287,0-0.618-0.049-0.689-0.186c-0.359-0.688,0.733-3.092,1.939-4.82l-1.64-1.146
	c-0.203,0.291-0.523,0.771-0.862,1.355c-0.445-0.612-1.061-1.068-1.795-1.301c-0.361-0.114-0.739-0.173-1.124-0.173
	c-1.742,0-3.367,1.159-4.043,2.885c-0.432,1.104-0.406,2.312,0.071,3.313c0.434,0.908,1.194,1.575,2.144,1.877
	c0.361,0.114,0.739,0.173,1.124,0.173c0.949,0,1.855-0.353,2.601-0.944c0.364,0.491,1.032,0.966,2.274,0.966
	c3.995,0,5.395-2.782,5.575-4.253L35.444,24C35.444,19.313,31.258,15.5,26.111,15.5z M24.468,26.274
	c-0.533-0.169-0.808-0.546-0.943-0.832c-0.24-0.504-0.245-1.132-0.014-1.724c0.371-0.95,1.269-1.613,2.18-1.613
	c0.179,0,0.354,0.026,0.519,0.079c0.532,0.169,0.807,0.544,0.942,0.829c0.24,0.504,0.245,1.133,0.013,1.727
	C26.721,25.877,25.478,26.597,24.468,26.274z"/>
<g>
	<polygon points="8.287,18 7.065,19.334 10.426,23 3,23 3,25 10.426,25 7.065,28.666 8.287,30 13.786,24 	"/>
	<polygon points="10,8 8,8 8,10 8,14 10,14 10,10 38,10 38,38 10,38 10,34 8,34 8,38 8,40 10,40 40,40 40,8 	"/>
</g>
</svg>
