<?xml version="1.0" encoding="utf-8"?>
<!-- Generator: Adobe Illustrator 16.0.0, SVG Export Plug-In . SVG Version: 6.00 Build 0)  -->
<!DOCTYPE svg PUBLIC "-//W3C//DTD SVG 1.1//EN" "http://www.w3.org/Graphics/SVG/1.1/DTD/svg11.dtd">
<svg version="1.1" id="Layer_1" xmlns="http://www.w3.org/2000/svg" xmlns:xlink="http://www.w3.org/1999/xlink" x="0px" y="0px"
	 width="48px" height="48px" viewBox="0 0 48 48" enable-background="new 0 0 48 48" xml:space="preserve">
<g>
	<g>
		<path d="M23.529,31.488c-0.624,0-1.236-0.081-1.82-0.24c-0.62-0.17-1.18-0.441-1.661-0.807c-0.497-0.382-0.894-0.85-1.182-1.393
			c-0.297-0.559-0.448-1.22-0.448-1.965c0-1.778,0.897-4.012,5.175-4.557l2.028-0.147c0.211-0.026,0.519-0.069,0.872-0.127
			c0.244-0.04,0.415-0.085,0.532-0.125c0.051-0.21,0.068-0.357,0.068-0.481h2c0,0.015,0,0.03,0,0.045h0.076V28
			c0.022,0.098,0.041,0.212,0.066,0.357c0.026,0.161,0.094,0.559,0.17,0.836c0.018,0.001,0.034,0.003,0.052,0.004
			c0.262,0.02,0.806,0.058,0.973,0c-0.001,0-0.054,0.02-0.118,0.08l1.375,1.453c-0.622,0.589-1.594,0.521-2.375,0.461
			c-0.148-0.011-0.283-0.021-0.389-0.021c-0.654,0-1.034-0.415-1.271-0.952c-0.293,0.273-0.622,0.519-1.011,0.687
			C25.786,31.275,24.651,31.488,23.529,31.488z M27.17,24.159c-0.111,0.024-0.228,0.047-0.351,0.067
			c-0.393,0.064-0.729,0.111-1.01,0.144l-2.019,0.146c-3.373,0.432-3.373,1.983-3.373,2.567c0,0.413,0.072,0.759,0.215,1.026
			c0.155,0.294,0.361,0.535,0.629,0.741c0.276,0.21,0.597,0.363,0.975,0.467c1.182,0.324,2.694,0.147,3.612-0.25
			c0.348-0.15,0.714-0.588,1.067-1.012c0.085-0.101,0.169-0.202,0.254-0.3V24.159z"/>
	</g>
	<path d="M29.17,21.867h-2c0-0.79-0.121-1.703-0.226-1.961c-0.138-0.341-0.312-0.598-0.536-0.784
		c-0.244-0.205-0.526-0.352-0.863-0.448c-0.341-0.097-0.906-0.162-1.406-0.162c-0.474,0-0.927,0.062-1.347,0.186
		c-0.389,0.114-0.715,0.284-0.999,0.521c-0.276,0.231-0.509,0.541-0.691,0.923c-0.189,0.396-0.302,0.896-0.336,1.491L18.77,21.52
		c0.048-0.855,0.226-1.609,0.528-2.24c0.306-0.643,0.715-1.18,1.214-1.596c0.492-0.411,1.069-0.716,1.717-0.905
		c0.603-0.177,1.245-0.267,1.91-0.267c0.539,0,1.337,0.062,1.956,0.239c0.604,0.173,1.142,0.455,1.599,0.838
		c0.475,0.398,0.847,0.926,1.105,1.569C29.092,19.883,29.17,21.247,29.17,21.867z"/>
</g>
<g>
	<polygon points="8.287,18 7.065,19.334 10.426,23 3,23 3,25 10.426,25 7.065,28.666 8.287,30 13.786,24 	"/>
	<polygon points="10,8 8,8 8,10 8,14 10,14 10,10 38,10 38,38 10,38 10,34 8,34 8,38 8,40 10,40 40,40 40,8 	"/>
</g>
</svg>
