<?xml version="1.0" encoding="utf-8"?>
<!-- Generator: Adobe Illustrator 16.0.0, SVG Export Plug-In . SVG Version: 6.00 Build 0)  -->
<!DOCTYPE svg PUBLIC "-//W3C//DTD SVG 1.1//EN" "http://www.w3.org/Graphics/SVG/1.1/DTD/svg11.dtd">
<svg version="1.1" id="Layer_1" xmlns="http://www.w3.org/2000/svg" xmlns:xlink="http://www.w3.org/1999/xlink" x="0px" y="0px"
	 width="48px" height="48px" viewBox="0 0 48 48" enable-background="new 0 0 48 48" xml:space="preserve">
<path d="M34,31.235L29.164,26.4c0.832-1.139,1.33-2.537,1.33-4.055c0-3.801-3.081-6.881-6.881-6.881
	c-3.801,0-6.881,3.08-6.881,6.881c0,3.8,3.08,6.881,6.881,6.881c1.518,0,2.916-0.498,4.055-1.33l4.835,4.836L34,31.235z
	 M23.613,27.109c-2.627,0-4.764-2.137-4.764-4.764s2.137-4.764,4.764-4.764s4.764,2.137,4.764,4.764S26.24,27.109,23.613,27.109z"/>
<g>
	<polygon points="8.287,18 7.065,19.334 10.426,23 3,23 3,25 10.426,25 7.065,28.666 8.287,30 13.786,24 	"/>
	<polygon points="10,8 8,8 8,10 8,14 10,14 10,10 38,10 38,38 10,38 10,34 8,34 8,38 8,40 10,40 40,40 40,8 	"/>
</g>
</svg>
