<?xml version="1.0" encoding="utf-8"?>
<!-- Generator: Adobe Illustrator 16.0.0, SVG Export Plug-In . SVG Version: 6.00 Build 0)  -->
<!DOCTYPE svg PUBLIC "-//W3C//DTD SVG 1.1//EN" "http://www.w3.org/Graphics/SVG/1.1/DTD/svg11.dtd">
<svg version="1.1" id="Layer_1" xmlns="http://www.w3.org/2000/svg" xmlns:xlink="http://www.w3.org/1999/xlink" x="0px" y="0px"
	 width="48px" height="48px" viewBox="0 0 48 48" enable-background="new 0 0 48 48" xml:space="preserve">
<g>
	<path d="M16.775,13.332c-0.118,0.039-0.289,0.084-0.531,0.124c-0.354,0.058-0.659,0.102-0.874,0.127l-2.028,0.147
		c-4.277,0.547-5.175,2.779-5.175,4.557c0,0.743,0.151,1.404,0.448,1.964c0.287,0.544,0.685,1.012,1.183,1.394
		c0.481,0.365,1.041,0.637,1.659,0.806c0.582,0.161,1.195,0.242,1.822,0.242c1.104,0,2.269-0.219,3.113-0.585
		c0.389-0.167,0.718-0.412,1.011-0.687c0.236,0.537,0.616,0.952,1.271,0.952c0.105,0,0.239,0.011,0.389,0.022
		c0.779,0.056,1.753,0.127,2.376-0.462l-1.377-1.451c0.066-0.062,0.119-0.081,0.119-0.081c-0.167,0.058-0.711,0.019-0.972-0.001
		c-0.018-0.001-0.035-0.003-0.053-0.004c-0.075-0.276-0.143-0.673-0.17-0.833c-0.025-0.147-0.045-0.263-0.067-0.361v-6.308h-0.003
		c-0.012-0.674-0.099-1.871-0.367-2.533c-0.26-0.643-0.631-1.171-1.105-1.569c-0.457-0.382-0.994-0.664-1.6-0.837
		c-0.622-0.177-1.418-0.24-1.955-0.24c-0.664,0-1.308,0.09-1.911,0.267c-0.644,0.188-1.221,0.493-1.716,0.905
		C9.763,9.303,9.354,9.84,9.048,10.481c-0.303,0.63-0.48,1.384-0.528,2.241l1.996,0.113c0.034-0.596,0.146-1.097,0.336-1.491
		c0.183-0.382,0.415-0.691,0.69-0.922c0.286-0.238,0.612-0.409,0.998-0.521c0.421-0.124,0.875-0.187,1.349-0.187
		c0.498,0,1.062,0.065,1.406,0.164c0.338,0.096,0.62,0.242,0.862,0.445c0.224,0.188,0.399,0.444,0.537,0.787
		c0.095,0.232,0.202,1.005,0.221,1.738h-0.072C16.843,12.976,16.826,13.122,16.775,13.332z M16.919,15.362v3.598
		c-0.084,0.098-0.168,0.198-0.252,0.299c-0.354,0.425-0.721,0.863-1.068,1.013c-0.921,0.399-2.437,0.574-3.612,0.25
		c-0.378-0.104-0.698-0.257-0.977-0.468c-0.268-0.205-0.472-0.446-0.627-0.739c-0.144-0.27-0.216-0.615-0.216-1.027
		c0-0.584,0-2.135,3.374-2.567l2.014-0.146c0.282-0.032,0.619-0.08,1.013-0.145C16.69,15.41,16.808,15.388,16.919,15.362z"/>
	<rect x="24" y="8" width="16" height="2"/>
	<rect x="24" y="18" width="16" height="2"/>
	<rect x="8" y="28" width="32" height="2"/>
	<rect x="8" y="38" width="32" height="2"/>
</g>
</svg>
