<?xml version="1.0" encoding="utf-8"?>
<!-- Generator: Adobe Illustrator 16.0.0, SVG Export Plug-In . SVG Version: 6.00 Build 0)  -->
<!DOCTYPE svg PUBLIC "-//W3C//DTD SVG 1.1//EN" "http://www.w3.org/Graphics/SVG/1.1/DTD/svg11.dtd">
<svg version="1.1" id="Layer_1" xmlns="http://www.w3.org/2000/svg" xmlns:xlink="http://www.w3.org/1999/xlink" x="0px" y="0px"
	 width="18px" height="18px" viewBox="0 0 18 18" enable-background="new 0 0 18 18" xml:space="preserve">
<polygon points="4,3 3,3 3,4 3,5 4,5 4,4 14,4 14,14 4,14 4,13 3,13 3,15 15,15 15,3 "/>
<g>
	<g>
		<path d="M10.741,12.11c-1.104,0-2.145-0.318-2.885-0.911C7.269,10.729,6.945,10.125,6.945,9.5c0-2.824,1.782-3.417,3.277-3.417
			S13.5,6.676,13.5,9.5c-0.064,0.549-0.492,1.447-1.665,1.602l0.194,0.865C11.6,12.062,11.165,12.11,10.741,12.11z M10.223,7.083
			c-1.575,0-2.277,0.745-2.277,2.417c0,0.315,0.19,0.642,0.535,0.918c0.638,0.511,1.622,0.751,2.637,0.677
			c-0.356-0.064-0.66-0.227-0.893-0.479c-0.57-0.621-0.509-1.554-0.5-1.658l0.996,0.086L10.223,9l0.498,0.04
			c-0.012,0.165,0.008,0.647,0.242,0.9c0.115,0.124,0.282,0.185,0.51,0.185c0.879,0,1.014-0.578,1.032-0.693
			C12.5,7.828,11.798,7.083,10.223,7.083z"/>
	</g>
	<path d="M11.125,9.49c-0.224,0.571-0.828,0.899-1.353,0.733c-0.523-0.167-0.77-0.765-0.545-1.336
		c0.222-0.569,0.829-0.896,1.354-0.729C11.105,8.324,11.35,8.921,11.125,9.49z"/>
</g>
<polygon points="3,6 3,8 1,8 1,10 3,10 3,12 6,9 "/>
</svg>
