<?xml version="1.0" encoding="utf-8"?>
<!-- Generator: Adobe Illustrator 16.0.0, SVG Export Plug-In . SVG Version: 6.00 Build 0)  -->
<!DOCTYPE svg PUBLIC "-//W3C//DTD SVG 1.1//EN" "http://www.w3.org/Graphics/SVG/1.1/DTD/svg11.dtd">
<svg version="1.1" id="Layer_1" xmlns="http://www.w3.org/2000/svg" xmlns:xlink="http://www.w3.org/1999/xlink" x="0px" y="0px"
	 width="18px" height="18px" viewBox="0 0 18 18" enable-background="new 0 0 18 18" xml:space="preserve">
<g>
	<polygon points="4,3 3,3 3,4 3,5 4,5 4,4 14,4 14,14 4,14 4,13 3,13 3,15 15,15 15,3 	"/>
	<path d="M9.253,5.5H7.875c-0.206,0-1.25,0.145-1.25,0.833c0,3.4,2.767,6.167,6.168,6.167c0.459,0,0.832-0.374,0.832-0.833V9.725
		c0-0.459-0.373-0.833-0.832-0.833c-0.276,0-0.362-0.029-0.615-0.115l-0.157-0.053c-0.288-0.09-0.613-0.018-0.854,0.216L10.539,9.61
		c-0.559-0.3-0.973-0.583-1.304-1.068L9.93,7.989c0.229-0.22,0.311-0.545,0.212-0.854c-0.068-0.208-0.065-0.307-0.06-0.545
		l0.004-0.258C10.086,5.874,9.712,5.5,9.253,5.5z M7.994,8.251C7.782,7.724,7.655,7.154,7.63,6.558
		C7.719,6.528,7.825,6.502,7.875,6.5h1.208L9.082,6.565C9.076,6.81,9.07,7.024,9.155,7.329L7.994,8.251z M10.419,10.675l0.335,0.171
		l1.062-1.136l0.04,0.013c0.249,0.085,0.438,0.149,0.77,0.165v1.609c-1.604-0.051-3.026-0.838-3.94-2.032
		C9.155,10.001,9.727,10.322,10.419,10.675z"/>
	<polygon points="3,12 6,9 3,6 3,8 1,8 1,10 3,10 	"/>
</g>
</svg>
