<?xml version="1.0" encoding="utf-8"?>
<!-- Generator: Adobe Illustrator 16.0.0, SVG Export Plug-In . SVG Version: 6.00 Build 0)  -->
<!DOCTYPE svg PUBLIC "-//W3C//DTD SVG 1.1//EN" "http://www.w3.org/Graphics/SVG/1.1/DTD/svg11.dtd">
<svg version="1.1" id="Layer_1" xmlns="http://www.w3.org/2000/svg" xmlns:xlink="http://www.w3.org/1999/xlink" x="0px" y="0px"
	 width="18px" height="18px" viewBox="0 0 18 18" enable-background="new 0 0 18 18" xml:space="preserve">
<g>
	<path d="M12.758,15.833c-1.078,0-1.883-0.354-2.393-1.054c-0.473-0.653-0.712-1.447-0.712-2.36h1c0,0.708,0.171,1.288,0.521,1.772
		c0.314,0.432,0.832,0.642,1.583,0.642c0.752,0,1.307-0.204,1.698-0.625c0.399-0.43,0.594-0.983,0.594-1.691
		c0-0.426-0.087-0.769-0.265-1.049c-0.029-0.047-0.102-0.136-0.28-0.246c-0.166-0.102-0.39-0.198-0.629-0.272l-1.237-0.385
		l1.528-0.704c0.234-0.11,0.295-0.165,0.308-0.18c0.188-0.244,0.279-0.571,0.279-0.998c0-0.607-0.158-1.05-0.485-1.35
		c-0.334-0.307-0.836-0.462-1.49-0.462c-0.805,0-1.325,0.298-1.638,0.937c-0.195,0.385-0.293,0.866-0.293,1.436h-1
		c0-0.729,0.134-1.361,0.397-1.882c0.477-0.973,1.354-1.49,2.533-1.49c0.913,0,1.642,0.244,2.167,0.726
		c0.537,0.494,0.809,1.195,0.809,2.086c0,0.646-0.164,1.188-0.486,1.607c-0.04,0.053-0.086,0.102-0.137,0.146
		c0.22,0.149,0.387,0.316,0.5,0.498c0.277,0.436,0.419,0.969,0.419,1.582c0,0.959-0.29,1.758-0.861,2.373
		C14.605,15.516,13.788,15.833,12.758,15.833z"/>
</g>
<path d="M8.601,6.901C7.985,5.693,7,5.08,5.653,5.08c-0.918,0-1.704,0.21-2.333,0.622C3.215,5.77,3.109,5.85,3,5.941V2H2v6.645V16h1
	V7.385C3.325,6.989,3.617,6.701,3.866,6.54c0.466-0.305,1.067-0.46,1.787-0.46c0.847,0,1.62,0.418,2.056,1.273
	C7.957,7.846,8,8.559,8,9.475V16h1V9.475C9,8.387,8.926,7.545,8.601,6.901z"/>
</svg>
