<?xml version="1.0" encoding="utf-8"?>
<!-- Generator: Adobe Illustrator 16.0.0, SVG Export Plug-In . SVG Version: 6.00 Build 0)  -->
<!DOCTYPE svg PUBLIC "-//W3C//DTD SVG 1.1//EN" "http://www.w3.org/Graphics/SVG/1.1/DTD/svg11.dtd">
<svg version="1.1" id="Layer_1" xmlns="http://www.w3.org/2000/svg" xmlns:xlink="http://www.w3.org/1999/xlink" x="0px" y="0px"
	 width="18px" height="18px" viewBox="0 0 18 18" enable-background="new 0 0 18 18" xml:space="preserve">
<path d="M13.051,13.229c-0.057,0.009-0.308,0.021-0.709,0.022c-0.088-0.216-0.167-0.679-0.195-0.847
	c-0.021-0.129-0.037-0.22-0.056-0.293V7.221h-0.004c-0.01-0.552-0.081-1.408-0.262-1.85c-0.184-0.455-0.443-0.826-0.774-1.104
	c-0.323-0.271-0.705-0.47-1.134-0.593C9.465,3.546,8.882,3.5,8.486,3.5C8,3.5,7.53,3.565,7.089,3.694
	C6.627,3.83,6.215,4.048,5.864,4.341c-0.355,0.297-0.646,0.68-0.863,1.137c-0.22,0.454-0.349,1.002-0.383,1.627l0.998,0.055
	c0.027-0.492,0.124-0.911,0.287-1.25c0.155-0.328,0.357-0.598,0.602-0.801c0.249-0.207,0.532-0.356,0.866-0.455
	C7.72,4.552,8.096,4.5,8.486,4.5c0.405,0,0.87,0.055,1.156,0.136c0.297,0.085,0.548,0.216,0.766,0.397
	c0.203,0.171,0.368,0.41,0.49,0.714c0.094,0.228,0.173,0.868,0.187,1.439h-0.053c0,0.126-0.018,0.271-0.051,0.426
	c-0.02,0.086-0.059,0.148-0.056,0.152c-0.144,0.063-0.339,0.116-0.583,0.156C10.066,7.966,9.828,8,9.646,8.021L8.099,8.134
	c-3.101,0.396-3.752,1.982-3.752,3.243c0,0.526,0.106,0.993,0.316,1.388c0.204,0.386,0.484,0.716,0.833,0.981
	c0.343,0.262,0.743,0.456,1.187,0.577C7.106,14.44,7.555,14.5,8.017,14.5c0.814,0,1.671-0.16,2.291-0.429
	c0.397-0.171,0.717-0.472,0.997-0.785c0.138,0.514,0.372,0.967,0.868,0.967c0.928,0,1.055-0.036,1.115-0.053L13.051,13.229z
	 M11.091,11.996c-0.085,0.097-0.17,0.198-0.255,0.3c-0.294,0.353-0.598,0.717-0.925,0.857c-0.767,0.332-2.013,0.47-2.963,0.206
	c-0.32-0.088-0.605-0.226-0.847-0.408c-0.231-0.177-0.419-0.397-0.556-0.655c-0.132-0.249-0.199-0.559-0.199-0.919
	c0-0.809,0.299-1.922,2.852-2.248l1.54-0.112c0.215-0.024,0.471-0.061,0.766-0.109c0.221-0.036,0.415-0.081,0.587-0.137V11.996z"/>
</svg>
