<?xml version="1.0" encoding="utf-8"?>
<!-- Generator: Adobe Illustrator 16.0.0, SVG Export Plug-In . SVG Version: 6.00 Build 0)  -->
<!DOCTYPE svg PUBLIC "-//W3C//DTD SVG 1.1//EN" "http://www.w3.org/Graphics/SVG/1.1/DTD/svg11.dtd">
<svg version="1.1" id="Layer_1" xmlns="http://www.w3.org/2000/svg" xmlns:xlink="http://www.w3.org/1999/xlink" x="0px" y="0px"
	 width="18px" height="18px" viewBox="0 0 18 18" enable-background="new 0 0 18 18" xml:space="preserve">
<g>
	<path d="M14,4v10H4V4H14 M15,3H3v12h12V3L15,3z"/>
	<path d="M9,6.25c0.896,0,1.625,0.729,1.625,1.625c0,0.867-0.826,2.24-1.625,3.299c-0.799-1.059-1.625-2.432-1.625-3.299
		C7.375,6.979,8.104,6.25,9,6.25 M9,5.25c-1.451,0-2.625,1.174-2.625,2.625C6.375,9.844,9,12.75,9,12.75s2.625-2.906,2.625-4.875
		C11.625,6.424,10.451,5.25,9,5.25L9,5.25z"/>
</g>
</svg>
