<?xml version="1.0" encoding="utf-8"?>
<!-- Generator: Adobe Illustrator 16.0.0, SVG Export Plug-In . SVG Version: 6.00 Build 0)  -->
<!DOCTYPE svg PUBLIC "-//W3C//DTD SVG 1.1//EN" "http://www.w3.org/Graphics/SVG/1.1/DTD/svg11.dtd">
<svg version="1.1" id="Layer_1" xmlns="http://www.w3.org/2000/svg" xmlns:xlink="http://www.w3.org/1999/xlink" x="0px" y="0px"
	 width="48px" height="48px" viewBox="0 0 48 48" enable-background="new 0 0 48 48" xml:space="preserve">
<g>
	<path d="M31,22c1.93,0,3.5-1.57,3.5-3.5S32.93,15,31,15s-3.5,1.57-3.5,3.5S29.07,22,31,22z M31,17c0.827,0,1.5,0.673,1.5,1.5
		S31.827,20,31,20s-1.5-0.673-1.5-1.5S30.173,17,31,17z"/>
	<path d="M20.692,24L13,34h8.113h7.271H35l-6.942-8l-2.944,2.113L20.692,24z M27.742,28.688L30.616,32h-2.231h-7.271h-4.052
		l3.877-5.039l2.812,2.616l1.198,1.115l1.33-0.954L27.742,28.688z"/>
	<polygon points="8.287,30 13.786,24 8.287,18 7.065,19.334 10.426,23 3,23 3,25 10.426,25 7.065,28.666 	"/>
	<polygon points="10,8 8,8 8,10 8,14 10,14 10,10 38,10 38,38 10,38 10,34 8,34 8,38 8,40 10,40 40,40 40,8 	"/>
</g>
</svg>
