<?xml version="1.0" encoding="utf-8"?>
<!-- Generator: Adobe Illustrator 16.0.0, SVG Export Plug-In . SVG Version: 6.00 Build 0)  -->
<!DOCTYPE svg PUBLIC "-//W3C//DTD SVG 1.1//EN" "http://www.w3.org/Graphics/SVG/1.1/DTD/svg11.dtd">
<svg version="1.1" id="Layer_1" xmlns="http://www.w3.org/2000/svg" xmlns:xlink="http://www.w3.org/1999/xlink" x="0px" y="0px"
	 width="48px" height="48px" viewBox="0 0 48 48" enable-background="new 0 0 48 48" xml:space="preserve">
<g>
	<polygon points="8.287,30 13.786,24 8.287,18 7.065,19.334 10.426,23 3,23 3,25 10.426,25 7.065,28.666 	"/>
	<path d="M24,16c-4.418,0-8,3.582-8,8s3.582,8,8,8s8-3.582,8-8S28.418,16,24,16z M24,30c-3.309,0-6-2.691-6-6s2.691-6,6-6
		s6,2.691,6,6S27.309,30,24,30z"/>
	<polygon points="32,8 32,5 16,5 16,8 10,8 8,8 8,10 8,14 10,14 10,10 16,10 18,10 18,7 30,7 30,10 32,10 38,10 38,38 10,38 10,34
		8,34 8,38 8,40 10,40 40,40 40,8 	"/>
	<rect x="30" y="13" width="6" height="2"/>
</g>
</svg>
