<?xml version="1.0" encoding="utf-8"?>
<!-- Generator: Adobe Illustrator 16.0.0, SVG Export Plug-In . SVG Version: 6.00 Build 0)  -->
<!DOCTYPE svg PUBLIC "-//W3C//DTD SVG 1.1//EN" "http://www.w3.org/Graphics/SVG/1.1/DTD/svg11.dtd">
<svg version="1.1" id="Layer_1" xmlns="http://www.w3.org/2000/svg" xmlns:xlink="http://www.w3.org/1999/xlink" x="0px" y="0px"
	 width="48px" height="48px" viewBox="0 0 48 48" enable-background="new 0 0 48 48" xml:space="preserve">
<path d="M24,31c-4.323,0-8.143-2.604-9.73-6.634L14.125,24l0.145-0.366C15.857,19.604,19.677,17,24,17s8.143,2.604,9.73,6.634
	L33.875,24l-0.145,0.366C32.143,28.396,28.323,31,24,31z M16.285,24c1.365,3.051,4.352,5,7.715,5s6.35-1.949,7.715-5
	c-1.365-3.051-4.352-5-7.715-5S17.65,20.949,16.285,24z M24,27.4c-1.874,0-3.399-1.525-3.399-3.4c0-1.874,1.525-3.399,3.399-3.399
	s3.399,1.525,3.399,3.399C27.399,25.875,25.874,27.4,24,27.4z M24,22.601c-0.771,0-1.399,0.628-1.399,1.399
	c0,0.772,0.628,1.4,1.399,1.4s1.399-0.628,1.399-1.4C25.399,23.229,24.771,22.601,24,22.601z"/>
</svg>
