<?xml version="1.0" encoding="utf-8"?>
<!-- Generator: Adobe Illustrator 16.0.0, SVG Export Plug-In . SVG Version: 6.00 Build 0)  -->
<!DOCTYPE svg PUBLIC "-//W3C//DTD SVG 1.1//EN" "http://www.w3.org/Graphics/SVG/1.1/DTD/svg11.dtd">
<svg version="1.1" id="Layer_1" xmlns="http://www.w3.org/2000/svg" xmlns:xlink="http://www.w3.org/1999/xlink" x="0px" y="0px"
	 width="48px" height="48px" viewBox="0 0 48 48" enable-background="new 0 0 48 48" xml:space="preserve">
<path d="M20.914,31H17v-3.914l6.293-6.293l1.414,1.414L19,27.914V29h1.086l5.707-5.707l1.414,1.414L20.914,31z M28.586,23.328
	l-3.914-3.914l1.927-1.926C26.911,17.174,27.329,17,27.774,17h0.001c0.444,0,0.862,0.173,1.178,0.488l1.559,1.559
	c0.315,0.315,0.489,0.734,0.488,1.179c0,0.445-0.174,0.862-0.489,1.177L28.586,23.328z M27.5,19.414l1.086,1.086l0.274-0.275
	l-1.085-1.085L27.5,19.414z"/>
</svg>
