<?xml version="1.0" encoding="utf-8"?>
<!-- Generator: Adobe Illustrator 16.0.0, SVG Export Plug-In . SVG Version: 6.00 Build 0)  -->
<!DOCTYPE svg PUBLIC "-//W3C//DTD SVG 1.1//EN" "http://www.w3.org/Graphics/SVG/1.1/DTD/svg11.dtd">
<svg version="1.1" id="Layer_1" xmlns="http://www.w3.org/2000/svg" xmlns:xlink="http://www.w3.org/1999/xlink" x="0px" y="0px"
	 width="48px" height="48px" viewBox="0 0 48 48" enable-background="new 0 0 48 48" xml:space="preserve">
<path d="M24,11.3c-7.72,0-14,5.697-14,12.7s6.28,12.7,14,12.7c3.112,0,6.058-0.905,8.517-2.619l-1.143-1.641
	C29.251,33.919,26.701,34.7,24,34.7c-6.617,0-12-4.8-12-10.7s5.383-10.7,12-10.7c6.59,0,11.955,4.76,12,10.627
	c-0.091,0.529-0.924,4.338-6.149,4.338c-0.839,0-1.368-0.198-1.572-0.59c-0.765-1.465,1.33-5.618,3.062-8.1l-1.64-1.145
	c-0.304,0.435-1.048,1.538-1.778,2.908c-0.61-1.263-1.672-2.19-2.995-2.611c-0.509-0.161-1.041-0.243-1.583-0.243
	c-2.49,0-4.815,1.665-5.785,4.145c-0.618,1.58-0.583,3.303,0.096,4.725c0.608,1.275,1.677,2.211,3.007,2.634
	c0.509,0.161,1.042,0.243,1.584,0.243c1.565,0,3.065-0.662,4.206-1.77c0.02,0.045,0.03,0.095,0.053,0.138
	c0.396,0.76,1.299,1.666,3.347,1.666c7.3,0,8.135-6.081,8.142-6.143L38,24C38,16.997,31.72,11.3,24,11.3z M22.245,28.23
	c-0.337,0-0.666-0.05-0.979-0.149c-0.798-0.253-1.439-0.817-1.808-1.589c-0.441-0.925-0.455-2.067-0.037-3.135
	c0.661-1.691,2.274-2.873,3.922-2.873c0.336,0,0.665,0.05,0.978,0.149c0.798,0.253,1.439,0.817,1.808,1.588
	c0.441,0.924,0.454,2.067,0.037,3.136C25.503,27.05,23.891,28.23,22.245,28.23z"/>
</svg>
