<?xml version="1.0" encoding="utf-8"?>
<!-- Generator: Adobe Illustrator 16.0.0, SVG Export Plug-In . SVG Version: 6.00 Build 0)  -->
<!DOCTYPE svg PUBLIC "-//W3C//DTD SVG 1.1//EN" "http://www.w3.org/Graphics/SVG/1.1/DTD/svg11.dtd">
<svg version="1.1" id="Layer_1" xmlns="http://www.w3.org/2000/svg" xmlns:xlink="http://www.w3.org/1999/xlink" x="0px" y="0px"
	 width="48px" height="48px" viewBox="0 0 48 48" enable-background="new 0 0 48 48" xml:space="preserve">
<path d="M34.667,38C21.617,38,11,27.383,11,14.333C11,13.047,12.047,12,13.333,12h5.511c1.286,0,2.333,1.047,2.333,2.333
	c0,1.525,0.238,3.021,0.709,4.447c0.273,0.861,0.047,1.769-0.588,2.379l-0.146,0.117l-1.621,1.059
	c1.685,2.945,4.174,5.431,7.132,7.119l1.191-1.792c0.619-0.597,1.537-0.809,2.354-0.552c1.438,0.475,2.934,0.713,4.459,0.713
	c1.286,0,2.333,1.047,2.333,2.333v5.511C37,36.953,35.953,38,34.667,38z M13.333,14C13.152,14,13,14.152,13,14.333
	C13,26.28,22.72,36,34.667,36C34.848,36,35,35.848,35,35.667v-5.511c0-0.181-0.152-0.333-0.333-0.333
	c-1.738,0-3.445-0.272-5.074-0.811c-0.06-0.019-0.168-0.035-0.289,0.04l-1.954,3.02l-0.803-0.408
	c-3.947-2.009-7.223-5.279-9.225-9.21l-0.407-0.801l3.035-1.981c0.076-0.11,0.046-0.236,0.033-0.276
	c-0.534-1.617-0.807-3.324-0.807-5.062c0-0.181-0.152-0.333-0.333-0.333H13.333z"/>
</svg>
