<?xml version="1.0" encoding="utf-8"?>
<!-- Generator: Adobe Illustrator 16.0.0, SVG Export Plug-In . SVG Version: 6.00 Build 0)  -->
<!DOCTYPE svg PUBLIC "-//W3C//DTD SVG 1.1//EN" "http://www.w3.org/Graphics/SVG/1.1/DTD/svg11.dtd">
<svg version="1.1" id="Layer_1" xmlns="http://www.w3.org/2000/svg" xmlns:xlink="http://www.w3.org/1999/xlink" x="0px" y="0px"
	 width="48px" height="48px" viewBox="0 0 48 48" enable-background="new 0 0 48 48" xml:space="preserve">
<g>
	<rect x="17" y="22" width="2" height="2"/>
	<rect x="23" y="22" width="2" height="2"/>
	<rect x="29" y="22" width="2" height="2"/>
	<rect x="17" y="27" width="2" height="2"/>
	<rect x="23" y="27" width="2" height="2"/>
	<rect x="29" y="27" width="2" height="2"/>
	<rect x="17" y="32" width="2" height="2"/>
	<rect x="23" y="32" width="2" height="2"/>
	<rect x="29" y="32" width="2" height="2"/>
	<path d="M35,8V6h-2v2H15V6h-2v2H8v8v2v22h32V8H35z M38,38H10V18h28V38z M38,16H10v-6h3v2h2v-2h18v2h2v-2h3V16z"/>
</g>
</svg>
