<?xml version="1.0" encoding="utf-8"?>
<!-- Generator: Adobe Illustrator 16.0.0, SVG Export Plug-In . SVG Version: 6.00 Build 0)  -->
<!DOCTYPE svg PUBLIC "-//W3C//DTD SVG 1.1//EN" "http://www.w3.org/Graphics/SVG/1.1/DTD/svg11.dtd">
<svg version="1.1" id="Layer_1" xmlns="http://www.w3.org/2000/svg" xmlns:xlink="http://www.w3.org/1999/xlink" x="0px" y="0px"
	 width="48px" height="48px" viewBox="0 0 48 48" enable-background="new 0 0 48 48" xml:space="preserve">
<g>
	<path d="M15.307,16.161c-1.836,0-3.408,0.419-4.666,1.243C10.43,17.54,10.217,17.699,10,17.883V10H8v13.288V38h2V20.77
		c0.65-0.791,1.232-1.366,1.732-1.689c0.932-0.609,2.133-0.919,3.574-0.919c2.566,0,4.238,0.834,5.111,2.546
		C20.914,21.69,21,23.118,21,24.95V38h2V24.95c0-2.178-0.15-3.86-0.799-5.147C20.971,17.387,18.65,16.161,15.307,16.161z"/>
	<path d="M39.938,27.353c-0.299-0.417-0.747-0.799-1.335-1.137c0.166-0.12,0.303-0.244,0.416-0.375
		c0.812-0.937,1.223-2.149,1.223-3.604c0-2.007-0.68-3.578-2.022-4.669C36.938,16.527,35.154,16,32.918,16
		c-2.924,0-5.014,1.102-6.202,3.26c-0.672,1.177-1.013,2.604-1.013,4.245h2c0-1.288,0.252-2.383,0.757-3.267
		C29.289,18.732,30.748,18,32.918,18c1.766,0,3.126,0.377,4.041,1.12c0.863,0.701,1.283,1.721,1.283,3.116
		c0,0.974-0.24,1.724-0.735,2.296c-0.024,0.027-0.186,0.183-0.89,0.475c-0.159,0.065-0.318,0.128-0.468,0.187
		c-0.156,0.061-0.303,0.118-0.432,0.172l-2.675,1.118l2.795,0.769c0.636,0.175,1.233,0.406,1.683,0.649
		c0.371,0.202,0.652,0.421,0.792,0.616c0.463,0.645,0.688,1.43,0.688,2.4c0,1.614-0.507,2.883-1.551,3.88
		c-1.041,0.995-2.584,1.5-4.586,1.5c-2.01,0-3.458-0.523-4.306-1.557c-0.909-1.106-1.351-2.429-1.351-4.044h-2
		c0,2.067,0.607,3.855,1.805,5.312c1.245,1.519,3.214,2.288,5.852,2.288c2.534,0,4.542-0.691,5.968-2.054
		C40.271,34.869,41,33.077,41,30.918C41,29.533,40.643,28.334,39.938,27.353z"/>
</g>
</svg>
