<?xml version="1.0" encoding="utf-8"?>
<!-- Generator: Adobe Illustrator 16.0.0, SVG Export Plug-In . SVG Version: 6.00 Build 0)  -->
<!DOCTYPE svg PUBLIC "-//W3C//DTD SVG 1.1//EN" "http://www.w3.org/Graphics/SVG/1.1/DTD/svg11.dtd">
<svg version="1.1" id="Layer_1" xmlns="http://www.w3.org/2000/svg" xmlns:xlink="http://www.w3.org/1999/xlink" x="0px" y="0px"
	 width="48px" height="48px" viewBox="0 0 48 48" enable-background="new 0 0 48 48" xml:space="preserve">
<g>
	<g>
		<path d="M22.201,19.803c-1.23-2.416-3.551-3.642-6.895-3.642c-1.836,0-3.407,0.419-4.666,1.243
			c-0.21,0.136-0.423,0.295-0.641,0.479V10H8v13.288V38h2V20.77c0.65-0.791,1.233-1.366,1.732-1.689
			c0.932-0.609,2.134-0.919,3.574-0.919c2.566,0,4.239,0.834,5.111,2.546C20.914,21.69,21,23.118,21,24.95V38h2V24.95
			C23,22.772,22.851,21.09,22.201,19.803z"/>
	</g>
	<g>
		<path d="M40,38H25v-1c0-2.323,2.211-4.713,6.571-7.104l1.933-1.072c1.532-0.854,2.594-1.575,3.154-2.144
			C37.562,25.769,38,24.704,38,23.423c0-1.229-0.422-2.321-1.29-3.338c-0.815-0.956-2.188-1.44-4.081-1.44
			c-2.29,0-3.824,0.749-4.692,2.291c-0.507,0.907-0.776,2.131-0.8,3.634l-2-0.031c0.029-1.838,0.384-3.379,1.056-4.581
			c1.237-2.199,3.402-3.312,6.437-3.312c2.506,0,4.391,0.721,5.603,2.143C39.405,20.161,40,21.721,40,23.423
			c0,1.81-0.646,3.379-1.92,4.664c-0.701,0.711-1.881,1.524-3.604,2.485l-1.944,1.078c-3.431,1.881-4.759,3.373-5.254,4.35H40V38z"
			/>
	</g>
</g>
</svg>
