<?xml version="1.0" encoding="utf-8"?>
<!-- Generator: Adobe Illustrator 16.0.0, SVG Export Plug-In . SVG Version: 6.00 Build 0)  -->
<!DOCTYPE svg PUBLIC "-//W3C//DTD SVG 1.1//EN" "http://www.w3.org/Graphics/SVG/1.1/DTD/svg11.dtd">
<svg version="1.1" id="Layer_1" xmlns="http://www.w3.org/2000/svg" xmlns:xlink="http://www.w3.org/1999/xlink" x="0px" y="0px"
	 width="18px" height="18px" viewBox="0 0 18 18" enable-background="new 0 0 18 18" xml:space="preserve">
<g>
	<g>
		<path d="M9.13,11.992c-0.245,0-0.489-0.032-0.726-0.095c-0.258-0.074-0.482-0.184-0.678-0.328
			c-0.213-0.166-0.374-0.358-0.488-0.577c-0.123-0.228-0.188-0.501-0.188-0.809c0-0.596,0.271-1.63,2.089-1.865l0.785-0.058
			c0.078-0.009,0.192-0.025,0.325-0.047c0.051-0.008,0.092-0.017,0.125-0.024c0.007-0.044,0.009-0.074,0.009-0.094h1
			c0,0.006,0,0.012,0,0.018h0.029v2.409c0.008,0.038,0.016,0.081,0.024,0.131c0.008,0.049,0.024,0.146,0.043,0.231
			c0.094,0.004,0.219,0.012,0.268-0.001c-0.002,0.001-0.044,0.013-0.092,0.059l0.688,0.725c-0.276,0.263-0.693,0.233-1.001,0.21
			c-0.054-0.004-0.103-0.008-0.141-0.008c-0.25,0-0.412-0.125-0.521-0.299c-0.091,0.073-0.192,0.138-0.308,0.188
			C10.034,11.904,9.569,11.992,9.13,11.992z M10.413,9.2c-0.003,0-0.005,0.001-0.008,0.001c-0.146,0.024-0.277,0.043-0.389,0.056
			L9.24,9.313c-1.189,0.154-1.189,0.656-1.189,0.87c0,0.142,0.022,0.252,0.069,0.338c0.053,0.101,0.121,0.182,0.213,0.253
			c0.087,0.064,0.204,0.121,0.338,0.159c0.42,0.11,0.975,0.048,1.306-0.094c0.107-0.047,0.245-0.212,0.367-0.357
			c0.022-0.028,0.046-0.056,0.069-0.084V9.2z"/>
	</g>
	<path d="M11.413,8.18h-1c0-0.285-0.042-0.621-0.077-0.708c-0.046-0.112-0.104-0.197-0.177-0.259
		C10.081,7.146,9.985,7.098,9.87,7.064c-0.227-0.065-0.679-0.081-0.992,0.01c-0.129,0.038-0.242,0.098-0.341,0.18
		C8.444,7.33,8.366,7.435,8.304,7.566C8.237,7.705,8.197,7.882,8.186,8.096L7.188,8.041c0.02-0.353,0.09-0.649,0.215-0.907
		C7.526,6.872,7.694,6.652,7.9,6.483c0.2-0.167,0.435-0.291,0.696-0.369c0.506-0.146,1.134-0.129,1.548-0.012
		c0.253,0.073,0.474,0.189,0.66,0.347c0.197,0.168,0.35,0.384,0.456,0.644C11.411,7.462,11.413,8.15,11.413,8.18z"/>
</g>
<polygon points="4,3 3,3 3,4 3,5 4,5 4,4 14,4 14,14 4,14 4,13 3,13 3,15 15,15 15,3 "/>
<polygon points="3,6 3,8 1,8 1,10 3,10 3,12 6,9 "/>
</svg>
