<?xml version="1.0" encoding="utf-8"?>
<!-- Generator: Adobe Illustrator 16.0.0, SVG Export Plug-In . SVG Version: 6.00 Build 0)  -->
<!DOCTYPE svg PUBLIC "-//W3C//DTD SVG 1.1//EN" "http://www.w3.org/Graphics/SVG/1.1/DTD/svg11.dtd">
<svg version="1.1" id="Layer_1" xmlns="http://www.w3.org/2000/svg" xmlns:xlink="http://www.w3.org/1999/xlink" x="0px" y="0px"
	 width="18px" height="18px" viewBox="0 0 18 18" enable-background="new 0 0 18 18" xml:space="preserve">
<g>
	<polygon points="13,3 13,2 12,2 12,3 6,3 6,2 5,2 5,3 4,3 3,3 3,4 3,5 4,5 4,4 5,4 5,6 6,6 6,4 12,4 12,6 13,6 13,4 14,4 14,7 7,7
		7,8 14,8 14,14 4,14 4,13 3,13 3,15 15,15 15,8 15,7 15,3 	"/>
	<rect x="7" y="10" width="1" height="1"/>
	<rect x="10" y="10" width="1" height="1"/>
	<rect x="7" y="12" width="1" height="1"/>
	<rect x="10" y="12" width="1" height="1"/>
</g>
<polygon points="3,6 3,8 1,8 1,10 3,10 3,12 6,9 "/>
</svg>
