<?xml version="1.0" encoding="utf-8"?>
<!-- Generator: Adobe Illustrator 16.0.0, SVG Export Plug-In . SVG Version: 6.00 Build 0)  -->
<!DOCTYPE svg PUBLIC "-//W3C//DTD SVG 1.1//EN" "http://www.w3.org/Graphics/SVG/1.1/DTD/svg11.dtd">
<svg version="1.1" id="Layer_1" xmlns="http://www.w3.org/2000/svg" xmlns:xlink="http://www.w3.org/1999/xlink" x="0px" y="0px"
	 width="18px" height="18px" viewBox="0 0 18 18" enable-background="new 0 0 18 18" xml:space="preserve">
<g>
	<polygon points="4,3 3,3 3,4 3,5 4,5 4,4 14,4 14,14 4,14 4,13 3,13 3,15 15,15 15,3 	"/>
	<path d="M9.5,6C8.119,6,7,7.119,7,8.5S8.119,11,9.5,11c0.508,0,0.979-0.153,1.373-0.414l1.542,1.543l0.603-0.603L11.49,9.998
		C11.806,9.58,12,9.064,12,8.5C12,7.119,10.881,6,9.5,6z M10.773,9.282l-0.252-0.253L9.919,9.632l0.22,0.22
		C9.944,9.944,9.729,10,9.5,10C8.673,10,8,9.327,8,8.5S8.673,7,9.5,7S11,7.673,11,8.5C11,8.787,10.914,9.054,10.773,9.282z"/>
	<polygon points="3,12 6,9 3,6 3,8 1,8 1,10 3,10 	"/>
</g>
</svg>
