<?xml version="1.0" encoding="utf-8"?>
<!-- Generator: Adobe Illustrator 16.0.0, SVG Export Plug-In . SVG Version: 6.00 Build 0)  -->
<!DOCTYPE svg PUBLIC "-//W3C//DTD SVG 1.1//EN" "http://www.w3.org/Graphics/SVG/1.1/DTD/svg11.dtd">
<svg version="1.1" id="Layer_1" xmlns="http://www.w3.org/2000/svg" xmlns:xlink="http://www.w3.org/1999/xlink" x="0px" y="0px"
	 width="18px" height="18px" viewBox="0 0 18 18" enable-background="new 0 0 18 18" xml:space="preserve">
<polygon points="4,3 3,3 3,4 3,5 4,5 4,4 14,4 14,14 4,14 4,13 3,13 3,15 15,15 15,3 "/>
<path d="M10,6.25c0.896,0,1.625,0.729,1.625,1.625c0,0.867-0.826,2.24-1.625,3.299c-0.799-1.059-1.625-2.432-1.625-3.299
	C8.375,6.979,9.104,6.25,10,6.25 M10,5.25c-1.451,0-2.625,1.174-2.625,2.625C7.375,9.844,10,12.75,10,12.75s2.625-2.906,2.625-4.875
	C12.625,6.424,11.451,5.25,10,5.25L10,5.25z"/>
<polygon points="3,6 3,8 1,8 1,10 3,10 3,12 6,9 "/>
</svg>
