<?xml version="1.0" encoding="utf-8"?>
<!-- Generator: Adobe Illustrator 16.0.0, SVG Export Plug-In . SVG Version: 6.00 Build 0)  -->
<!DOCTYPE svg PUBLIC "-//W3C//DTD SVG 1.1//EN" "http://www.w3.org/Graphics/SVG/1.1/DTD/svg11.dtd">
<svg version="1.1" id="Layer_1" xmlns="http://www.w3.org/2000/svg" xmlns:xlink="http://www.w3.org/1999/xlink" x="0px" y="0px"
	 width="18px" height="18px" viewBox="0 0 18 18" enable-background="new 0 0 18 18" xml:space="preserve">
<g>
	<rect x="10" y="5" width="5" height="1"/>
	<rect x="10" y="8" width="5" height="1"/>
	<rect x="3" y="11" width="12" height="1"/>
	<rect x="3" y="14" width="12" height="1"/>
	<path d="M7.054,5.801C7.021,5.809,6.979,5.817,6.929,5.825C6.796,5.847,6.682,5.864,6.604,5.873L5.819,5.931
		c-1.818,0.234-2.09,1.27-2.09,1.865c0,0.309,0.064,0.582,0.187,0.807C4.031,8.824,4.193,9.017,4.403,9.18
		C4.6,9.326,4.826,9.437,5.083,9.509c0.236,0.062,0.48,0.095,0.726,0.095c0.448,0,0.902-0.086,1.242-0.234
		C7.166,9.32,7.268,9.256,7.359,9.183c0.109,0.174,0.271,0.299,0.521,0.299c0.038,0,0.087,0.004,0.141,0.008
		c0.308,0.023,0.726,0.053,1.001-0.21L8.335,8.555c0.049-0.047,0.091-0.058,0.092-0.059C8.378,8.51,8.252,8.502,8.159,8.497
		C8.141,8.411,8.124,8.314,8.116,8.266C8.107,8.216,8.1,8.173,8.092,8.135v-2.41H8.091C8.087,5.543,8.065,5.016,7.939,4.704
		c-0.106-0.26-0.259-0.476-0.456-0.644c-0.188-0.158-0.409-0.274-0.66-0.346C6.405,3.598,5.767,3.584,5.275,3.727
		C5.013,3.805,4.777,3.929,4.577,4.096c-0.206,0.171-0.373,0.391-0.496,0.65C3.956,5.004,3.886,5.301,3.866,5.653l0.998,0.055
		c0.012-0.214,0.052-0.391,0.119-0.53c0.062-0.133,0.139-0.234,0.232-0.312c0.098-0.081,0.21-0.14,0.343-0.18
		c0.303-0.088,0.759-0.074,0.993-0.009C6.665,4.71,6.76,4.758,6.838,4.824C6.91,4.886,6.969,4.971,7.014,5.082
		c0.031,0.079,0.068,0.36,0.075,0.625H7.062C7.062,5.727,7.061,5.757,7.054,5.801z M7.092,6.812v1.199
		C7.068,8.038,7.046,8.066,7.022,8.094C6.901,8.239,6.764,8.404,6.653,8.452C6.329,8.593,5.777,8.658,5.347,8.544
		C5.216,8.507,5.1,8.451,5.01,8.385c-0.09-0.07-0.158-0.15-0.212-0.253C4.753,8.048,4.729,7.935,4.729,7.796
		c0-0.215,0-0.717,1.189-0.87l0.776-0.057c0.111-0.013,0.243-0.032,0.389-0.057C7.087,6.812,7.089,6.812,7.092,6.812z"/>
</g>
</svg>
