<?xml version="1.0" encoding="utf-8"?>
<!-- Generator: Adobe Illustrator 16.0.0, SVG Export Plug-In . SVG Version: 6.00 Build 0)  -->
<!DOCTYPE svg PUBLIC "-//W3C//DTD SVG 1.1//EN" "http://www.w3.org/Graphics/SVG/1.1/DTD/svg11.dtd">
<svg version="1.1" xmlns="http://www.w3.org/2000/svg" xmlns:xlink="http://www.w3.org/1999/xlink" x="0px" y="0px" width="18px"
	 height="18px" viewBox="0 0 18 18" enable-background="new 0 0 18 18" xml:space="preserve">
<g id="Layer_2">
</g>
<g id="Layer_1">
	<path fill="#636363" d="M8.898,13.984H2.016V4.398L5.43,0.984h6.586v7.551c0.346,0.035,0.679,0.103,1,0.205v-8.755h-8l-4,4v11
		h7.087C8,14.663,8.933,14.33,8.898,13.984z"/>
	<g>
		<circle fill="#FFFFFF" cx="12.5" cy="12.5" r="4.95"/>
		<path fill="#636363" d="M12.5,18C9.467,18,7,15.533,7,12.5S9.467,7,12.5,7S18,9.467,18,12.5S15.533,18,12.5,18z"/>
	</g>
	<polygon fill="#FFFFFF" points="15,12.127 12.857,12.127 12.857,9.984 12.143,9.984 12.143,12.127 10,12.127 10,12.841
		12.143,12.841 12.143,14.984 12.857,14.984 12.857,12.841 15,12.841 	"/>
	<polygon fill="#636363" points="6.016,4.984 1.016,4.984 1.016,3.984 5.016,3.984 5.016,-0.016 6.016,-0.016 	"/>
</g>
<g id="mapa_do_projeto" display="none">
</g>
<g id="menu_e_tooltip" display="none">
</g>
</svg>
