<?xml version="1.0" encoding="utf-8"?>
<!-- Generator: Adobe Illustrator 16.0.0, SVG Export Plug-In . SVG Version: 6.00 Build 0)  -->
<!DOCTYPE svg PUBLIC "-//W3C//DTD SVG 1.1//EN" "http://www.w3.org/Graphics/SVG/1.1/DTD/svg11.dtd">
<svg version="1.1" id="Layer_1" xmlns="http://www.w3.org/2000/svg" xmlns:xlink="http://www.w3.org/1999/xlink" x="0px" y="0px"
	 width="18px" height="18px" viewBox="0 0 18 18" enable-background="new 0 0 18 18" xml:space="preserve">
<g>
	<path d="M12,7c0.165-0.016,1.331-0.025,1.5-0.025S13.835,6.984,14,7V1H7v0.551L6.449,1L1,6.449L1.551,7H1v10h7
		c-0.163-0.316,0.1-1.651,0-2H3V9h6V3h3V7z M7,7H3.277L7,3.277V7z"/>
	<polygon points="14,12 14,9 12,9 12,12 9,12 9,14 12,14 12,17 14,17 14,14 17,14 17,12 	"/>
</g>
</svg>
