<?xml version="1.0" encoding="utf-8"?>
<!-- Generator: Adobe Illustrator 16.0.0, SVG Export Plug-In . SVG Version: 6.00 Build 0)  -->
<!DOCTYPE svg PUBLIC "-//W3C//DTD SVG 1.1//EN" "http://www.w3.org/Graphics/SVG/1.1/DTD/svg11.dtd">
<svg version="1.1" id="Layer_1" xmlns="http://www.w3.org/2000/svg" xmlns:xlink="http://www.w3.org/1999/xlink" x="0px" y="0px"
	 width="18px" height="18px" viewBox="0 0 18 18" enable-background="new 0 0 18 18" xml:space="preserve">
<path d="M9.601,6.901C8.985,5.693,8,5.08,6.653,5.08c-0.918,0-1.704,0.21-2.333,0.622C4.215,5.77,4.109,5.85,4,5.941V2H3v6.645V16h1
	V7.385C4.325,6.989,4.617,6.701,4.866,6.54c0.466-0.305,1.067-0.46,1.787-0.46c0.847,0,1.62,0.418,2.056,1.273
	C8.957,7.846,9,8.559,9,9.475V16h1V9.475C10,8.387,9.926,7.545,9.601,6.901z"/>
<g>
	<path d="M14,5.5h1V16h-1V9h-2.5c0,0,0-0.5,0-1.012C14,7.988,14,5.5,14,5.5z"/>
</g>
</svg>
