<?xml version="1.0" encoding="utf-8"?>
<!-- Generator: Adobe Illustrator 16.0.0, SVG Export Plug-In . SVG Version: 6.00 Build 0)  -->
<!DOCTYPE svg PUBLIC "-//W3C//DTD SVG 1.1//EN" "http://www.w3.org/Graphics/SVG/1.1/DTD/svg11.dtd">
<svg version="1.1" id="Layer_1" xmlns="http://www.w3.org/2000/svg" xmlns:xlink="http://www.w3.org/1999/xlink" x="0px" y="0px"
	 width="18px" height="18px" viewBox="0 0 18 18" enable-background="new 0 0 18 18" xml:space="preserve">
<g>
	<path d="M8.5,14C5.468,14,3,11.757,3,9s2.468-5,5.5-5S14,6.243,14,9c-0.109,0.913-0.923,2.525-3.25,2.525
		c-0.846,0-1.223-0.382-1.39-0.703c-0.642-1.231,0.918-3.573,1.237-4.03l0.82,0.572c-0.755,1.083-1.406,2.545-1.171,2.996
		c0.071,0.137,0.312,0.165,0.503,0.165c2.034,0,2.246-1.521,2.254-1.587C13,6.794,10.981,5,8.5,5S4,6.794,4,9s2.019,4,4.5,4
		c1.015,0,1.973-0.294,2.77-0.849l0.572,0.82C10.875,13.645,9.72,14,8.5,14z"/>
	<path d="M7.824,11.512c-0.22,0-0.437-0.033-0.644-0.099c-0.543-0.173-0.979-0.555-1.227-1.075C5.68,9.763,5.666,9.067,5.915,8.431
		C6.39,7.216,7.74,6.495,8.892,6.863c0.542,0.172,0.978,0.552,1.226,1.071c0.274,0.575,0.289,1.271,0.039,1.911
		C9.766,10.843,8.828,11.512,7.824,11.512z M8.246,7.764c-0.587,0-1.163,0.424-1.399,1.031C6.697,9.176,6.701,9.581,6.857,9.908
		c0.09,0.189,0.271,0.439,0.626,0.552c0.651,0.205,1.456-0.251,1.741-0.979c0.149-0.382,0.146-0.788-0.01-1.115
		C9.124,8.177,8.942,7.929,8.59,7.816C8.479,7.781,8.364,7.764,8.246,7.764z"/>
</g>
</svg>
