<?xml version="1.0" encoding="utf-8"?>
<!-- Generator: Adobe Illustrator 16.0.0, SVG Export Plug-In . SVG Version: 6.00 Build 0)  -->
<!DOCTYPE svg PUBLIC "-//W3C//DTD SVG 1.1//EN" "http://www.w3.org/Graphics/SVG/1.1/DTD/svg11.dtd">
<svg version="1.1" id="Layer_1" xmlns="http://www.w3.org/2000/svg" xmlns:xlink="http://www.w3.org/1999/xlink" x="0px" y="0px"
	 width="18px" height="18px" viewBox="0 0 18 18" enable-background="new 0 0 18 18" xml:space="preserve">
<path d="M13,8.809c-0.56,0-1.107-0.088-1.635-0.262c-0.353-0.113-0.746-0.019-1.009,0.238L9.947,9.395
	c-0.094-0.046-0.184-0.089-0.27-0.13C8.894,8.892,8.529,8.719,8.115,8.037l0.582-0.386C8.971,7.39,9.068,7,8.951,6.628
	C8.779,6.107,8.691,5.56,8.691,5c0-0.552-0.448-1-1-1H5.625C5.412,4,4,4.187,4,5c0,4.963,4.037,9,9,9c0.552,0,1-0.448,1-1V9.809
	C14,9.257,13.552,8.809,13,8.809z M12.998,13c-4.354-0.001-7.906-3.498-7.996-7.831C5.174,5.086,5.508,5,5.625,5h2.066
	c0,0.661,0.103,1.311,0.305,1.925l-1.19,0.777L7.01,8.102c0.673,1.321,1.262,1.602,2.238,2.066c0.194,0.093,0.409,0.195,0.65,0.317
	L10.3,10.69l0.769-1.188c0.619,0.203,1.27,0.307,1.932,0.307L12.998,13z"/>
</svg>
