<?xml version="1.0" encoding="utf-8"?>
<!-- Generator: Adobe Illustrator 16.0.0, SVG Export Plug-In . SVG Version: 6.00 Build 0)  -->
<!DOCTYPE svg PUBLIC "-//W3C//DTD SVG 1.1//EN" "http://www.w3.org/Graphics/SVG/1.1/DTD/svg11.dtd">
<svg version="1.1" id="Layer_1" xmlns="http://www.w3.org/2000/svg" xmlns:xlink="http://www.w3.org/1999/xlink" x="0px" y="0px"
	 width="18px" height="18px" viewBox="0 0 18 18" enable-background="new 0 0 18 18" xml:space="preserve">
<g>
	<rect x="9" y="5" width="6" height="1"/>
	<rect x="9" y="8" width="6" height="1"/>
	<rect x="3" y="11" width="12" height="1"/>
	<rect x="3" y="14" width="12" height="1"/>
	<path d="M3.994,8.092c0.05,0.04,0.1,0.086,0.149,0.117c0.295,0.188,0.645,0.282,1.04,0.282c0.495,0,0.938-0.155,1.316-0.463
		C7.06,7.57,7.344,6.858,7.344,5.91c0-0.722-0.199-1.306-0.591-1.731C6.35,3.734,5.825,3.5,5.236,3.5
		c-0.398,0-0.771,0.106-1.063,0.3C4.105,3.842,4.044,3.896,3.98,3.948L3.978,3H3v7h1L3.994,8.092z M3.984,4.974L4,5
		c0.09-0.122,0.593-0.284,0.712-0.358c0.356-0.234,0.941-0.185,1.303,0.211C6.233,5.091,6.344,5.446,6.344,5.91
		c0,0.633-0.16,1.085-0.476,1.343C5.52,7.537,4.982,7.561,4.68,7.364C4.626,7.331,4.126,7.157,4,7L3.99,7.019L3.984,4.974z"/>
</g>
</svg>
