<?xml version="1.0" encoding="utf-8"?>
<!-- Generator: Adobe Illustrator 16.0.0, SVG Export Plug-In . SVG Version: 6.00 Build 0)  -->
<!DOCTYPE svg PUBLIC "-//W3C//DTD SVG 1.1//EN" "http://www.w3.org/Graphics/SVG/1.1/DTD/svg11.dtd">
<svg version="1.1" id="Layer_1" xmlns="http://www.w3.org/2000/svg" xmlns:xlink="http://www.w3.org/1999/xlink" x="0px" y="0px"
	 width="18px" height="18px" viewBox="0 0 18 18" enable-background="new 0 0 18 18" xml:space="preserve">
<g>
	<path d="M16,16H9.956l0.302-0.698c0.021-0.047,0.039-0.104,0.061-0.169c0.193-0.573,0.553-1.64,2.541-2.848l0.716-0.465
		c0.6-0.391,1.019-0.725,1.242-0.993c0.402-0.474,0.604-1.053,0.604-1.726c0-0.64-0.191-1.226-0.567-1.741
		c-0.356-0.487-0.681-0.735-1.466-0.735c-1.023,0-1.653,0.997-1.938,1.591c-0.205,0.427-0.223,0.6-0.234,1.381l-1-0.014
		c0.012-0.812,0.028-1.166,0.332-1.799c0.667-1.393,1.675-2.159,2.84-2.159c1.021,0,1.679,0.332,2.272,1.146
		c0.505,0.691,0.761,1.476,0.761,2.331c0,0.916-0.282,1.713-0.839,2.37c-0.295,0.352-0.76,0.729-1.462,1.188l-0.729,0.474
		c-1.241,0.754-1.718,1.391-1.948,1.867H16V16z"/>
</g>
<path d="M8.601,6.901C7.985,5.693,7,5.08,5.653,5.08c-0.918,0-1.704,0.21-2.333,0.622C3.215,5.77,3.109,5.85,3,5.941V2H2v6.645V16h1
	V7.385C3.325,6.989,3.617,6.701,3.866,6.54c0.466-0.305,1.067-0.46,1.787-0.46c0.847,0,1.62,0.418,2.056,1.273
	C7.957,7.846,8,8.559,8,9.475V16h1V9.475C9,8.387,8.926,7.545,8.601,6.901z"/>
</svg>
