<?xml version="1.0" encoding="utf-8"?>
<!-- Generator: Adobe Illustrator 16.0.0, SVG Export Plug-In . SVG Version: 6.00 Build 0)  -->
<!DOCTYPE svg PUBLIC "-//W3C//DTD SVG 1.1//EN" "http://www.w3.org/Graphics/SVG/1.1/DTD/svg11.dtd">
<svg version="1.1" id="Layer_1" xmlns="http://www.w3.org/2000/svg" xmlns:xlink="http://www.w3.org/1999/xlink" x="0px" y="0px"
	 width="56px" height="56px" viewBox="0 0 56 56" enable-background="new 0 0 56 56" xml:space="preserve">
<g>
	<rect fill="#1D1D1B" width="56" height="56"/>
	<g>
		<path fill="#FFFFFF" d="M5.263,9.845l3.378,3.685c2.252-2.321,4.649-3.479,7.191-3.479s4.683,0.869,6.423,2.609
			c1.741,1.74,2.61,3.865,2.61,6.373s-0.878,4.555-2.636,6.141c-1.757,1.588-3.829,2.381-6.219,2.381
			c-2.388,0-4.76-1.023-7.114-3.071l-3.378,4.146c2.833,2.832,6.296,4.248,10.39,4.248c4.095,0,7.567-1.305,10.416-3.915
			c2.85-2.61,4.273-5.997,4.273-10.159c0-4.164-1.364-7.533-4.094-10.109c-2.73-2.576-5.989-3.863-9.776-3.863
			C12.395,4.829,8.572,6.499,5.263,9.845"/>
	</g>
</g>
</svg>
