<?xml version="1.0" encoding="utf-8"?>
<!-- Generator: Adobe Illustrator 16.0.0, SVG Export Plug-In . SVG Version: 6.00 Build 0)  -->
<!DOCTYPE svg PUBLIC "-//W3C//DTD SVG 1.1//EN" "http://www.w3.org/Graphics/SVG/1.1/DTD/svg11.dtd">
<svg version="1.1" id="Layer_1" xmlns="http://www.w3.org/2000/svg" xmlns:xlink="http://www.w3.org/1999/xlink" x="0px" y="0px"
	 width="48px" height="48px" viewBox="0 0 48 48" enable-background="new 0 0 48 48" xml:space="preserve">
<g>
	<rect width="48" height="48"/>
	<g>
		<path fill="#FFFFFF" d="M23.985,13.832c0-5.617-4.553-10.17-10.17-10.17c-4.239,0-7.87,2.596-9.396,6.284l3.072,1.773
			c0.884-2.644,3.376-4.552,6.318-4.552c3.681,0,6.665,2.984,6.665,6.665c0,3.681-2.984,6.665-6.665,6.665
			c-2.877,0-5.321-1.827-6.255-4.379l-3.063,1.768c1.567,3.598,5.15,6.116,9.324,6.116C19.432,24.001,23.985,19.448,23.985,13.832"
			/>
	</g>
</g>
</svg>
