<?xml version="1.0" encoding="utf-8"?>
<!-- Generator: Adobe Illustrator 16.0.0, SVG Export Plug-In . SVG Version: 6.00 Build 0)  -->
<!DOCTYPE svg PUBLIC "-//W3C//DTD SVG 1.1//EN" "http://www.w3.org/Graphics/SVG/1.1/DTD/svg11.dtd">
<svg version="1.1" id="Layer_1" xmlns="http://www.w3.org/2000/svg" xmlns:xlink="http://www.w3.org/1999/xlink" x="0px" y="0px"
	 width="48px" height="48px" viewBox="0 0 48 48" enable-background="new 0 0 48 48" xml:space="preserve">
<g>
	<path d="M24,16c2.757,0,5,2.243,5,5c0,2.877-2.885,7.188-4.997,9.878C21.92,28.213,19,23.852,19,21C19,18.243,21.243,16,24,16
		 M24,14c-3.87,0-7,3.13-7,7c0,5.25,7,13,7,13s7-7.75,7-13C31,17.13,27.871,14,24,14L24,14z"/>
	<g>
		<circle cx="24" cy="21.572" r="2"/>
	</g>
</g>
<g>
	<polygon points="8.287,18 7.065,19.334 10.426,23 3,23 3,25 10.426,25 7.065,28.666 8.287,30 13.786,24 	"/>
	<polygon points="10,8 8,8 8,10 8,14 10,14 10,10 38,10 38,38 10,38 10,34 8,34 8,38 8,40 10,40 40,40 40,8 	"/>
</g>
</svg>
