<?xml version="1.0" encoding="utf-8"?>
<!-- Generator: Adobe Illustrator 16.0.0, SVG Export Plug-In . SVG Version: 6.00 Build 0)  -->
<!DOCTYPE svg PUBLIC "-//W3C//DTD SVG 1.1//EN" "http://www.w3.org/Graphics/SVG/1.1/DTD/svg11.dtd">
<svg version="1.1" id="Layer_1" xmlns="http://www.w3.org/2000/svg" xmlns:xlink="http://www.w3.org/1999/xlink" x="0px" y="0px"
	 width="48px" height="48px" viewBox="0 0 48 48" enable-background="new 0 0 48 48" xml:space="preserve">
<path d="M32.111,33C23.228,33,16,25.772,16,16.889C16,15.848,16.848,15,17.889,15h3.674c1.041,0,1.889,0.848,1.889,1.889
	c0,0.981,0.153,1.943,0.456,2.86c0.221,0.701,0.036,1.436-0.477,1.931l-0.147,0.118l-0.814,0.53
	c1.034,1.705,2.487,3.156,4.199,4.192l0.669-0.985c0.499-0.482,1.238-0.656,1.9-0.447c0.931,0.308,1.893,0.461,2.874,0.461
	c1.041,0,1.889,0.848,1.889,1.889v3.674C34,32.152,33.152,33,32.111,33z M18,17c0.06,7.693,6.307,13.94,14,14v-3.452
	c-1.121-0.011-2.222-0.187-3.275-0.523l-1.375,2.124l-0.803-0.408c-2.694-1.371-4.931-3.604-6.296-6.287l-0.407-0.8l2.129-1.389
	c-0.334-1.042-0.51-2.144-0.521-3.265H18z"/>
<g>
	<polygon points="8.287,18 7.065,19.334 10.426,23 3,23 3,25 10.426,25 7.065,28.666 8.287,30 13.786,24 	"/>
	<polygon points="10,8 8,8 8,10 8,14 10,14 10,10 38,10 38,38 10,38 10,34 8,34 8,38 8,40 10,40 40,40 40,8 	"/>
</g>
</svg>
