<?xml version="1.0" encoding="utf-8"?>
<!-- Generator: Adobe Illustrator 16.0.0, SVG Export Plug-In . SVG Version: 6.00 Build 0)  -->
<!DOCTYPE svg PUBLIC "-//W3C//DTD SVG 1.1//EN" "http://www.w3.org/Graphics/SVG/1.1/DTD/svg11.dtd">
<svg version="1.1" id="Layer_1" xmlns="http://www.w3.org/2000/svg" xmlns:xlink="http://www.w3.org/1999/xlink" x="0px" y="0px"
	 width="48px" height="48px" viewBox="0 0 48 48" enable-background="new 0 0 48 48" xml:space="preserve">
<g>
	<rect x="23" y="8" width="17" height="2"/>
	<rect x="23" y="18" width="17" height="2"/>
	<rect x="8" y="28" width="32" height="2"/>
	<rect x="8" y="38" width="32" height="2"/>
</g>
<path d="M17.499,8.754C16.438,7.59,15.122,7,13.59,7c-1.037,0-1.961,0.262-2.727,0.765c-0.319,0.199-0.617,0.459-0.904,0.749
	L9.956,7.045H8V26h2l-0.016-6.769c0.276,0.28,0.541,0.507,0.796,0.665c0.722,0.465,1.606,0.701,2.628,0.701
	c1.286,0,2.433-0.402,3.407-1.197c1.492-1.218,2.249-3.2,2.249-5.894C19.064,11.489,18.538,9.89,17.499,8.754z M15.552,17.851
	c-0.617,0.503-1.318,0.747-2.144,0.747c-0.631,0-1.151-0.129-1.557-0.39c-0.104-0.064-1.078-0.746-1.873-1.361l-0.014-5.949L10,11
	c0.291-0.394,1.592-1.332,1.941-1.551C12.401,9.146,12.94,9,13.59,9c0.96,0,1.756,0.36,2.433,1.103
	c0.691,0.757,1.042,1.901,1.042,3.404C17.064,15.57,16.556,17.032,15.552,17.851z"/>
</svg>
