<?xml version="1.0" encoding="utf-8"?>
<!-- Generator: Adobe Illustrator 16.0.0, SVG Export Plug-In . SVG Version: 6.00 Build 0)  -->
<!DOCTYPE svg PUBLIC "-//W3C//DTD SVG 1.1//EN" "http://www.w3.org/Graphics/SVG/1.1/DTD/svg11.dtd">
<svg version="1.1" id="Layer_1" xmlns="http://www.w3.org/2000/svg" xmlns:xlink="http://www.w3.org/1999/xlink" x="0px" y="0px"
	 width="48px" height="48px" viewBox="0 0 48 48" enable-background="new 0 0 48 48" xml:space="preserve">
<g>
	<path d="M26.201,19.803c-1.23-2.416-3.551-3.642-6.895-3.642c-1.836,0-3.407,0.419-4.666,1.243
		c-0.21,0.136-0.423,0.295-0.641,0.479V10h-2v13.288V38h2V20.77c0.65-0.791,1.233-1.366,1.732-1.689
		c0.932-0.609,2.134-0.919,3.574-0.919c2.566,0,4.239,0.834,5.111,2.546C24.914,21.69,25,23.118,25,24.95V38h2V24.95
		C27,22.772,26.851,21.09,26.201,19.803z"/>
	<g>
		<path d="M34,17h2v21h-2V23h-5c0,0,0-1,0-2.023C34,20.977,34,17,34,17z"/>
	</g>
</g>
</svg>
