<?xml version="1.0" encoding="utf-8"?>
<!-- Generator: Adobe Illustrator 16.0.0, SVG Export Plug-In . SVG Version: 6.00 Build 0)  -->
<!DOCTYPE svg PUBLIC "-//W3C//DTD SVG 1.1//EN" "http://www.w3.org/Graphics/SVG/1.1/DTD/svg11.dtd">
<svg version="1.1" id="Layer_1" xmlns="http://www.w3.org/2000/svg" xmlns:xlink="http://www.w3.org/1999/xlink" x="0px" y="0px"
	 width="48px" height="48px" viewBox="0 0 48 48" enable-background="new 0 0 48 48" xml:space="preserve">
<path d="M24,16c-4.418,0-8,3.582-8,8s3.582,8,8,8s8-3.582,8-8S28.418,16,24,16z M24,30c-3.309,0-6-2.691-6-6s2.691-6,6-6
	s6,2.691,6,6S27.309,30,24,30z"/>
<path d="M32,8V5H16v3h-6H8v2v24v1v3v2h2h30V8H32z M38,38H10v-3v-1V10h6h2V7h12v3h2h6V38z"/>
<rect x="30" y="13" width="6" height="2"/>
</svg>
