<?xml version="1.0" encoding="utf-8"?>
<!-- Generator: Adobe Illustrator 16.0.0, SVG Export Plug-In . SVG Version: 6.00 Build 0)  -->
<!DOCTYPE svg PUBLIC "-//W3C//DTD SVG 1.1//EN" "http://www.w3.org/Graphics/SVG/1.1/DTD/svg11.dtd">
<svg version="1.1" id="Layer_1" xmlns="http://www.w3.org/2000/svg" xmlns:xlink="http://www.w3.org/1999/xlink" x="0px" y="0px"
	 width="48px" height="48px" viewBox="0 0 48 48" enable-background="new 0 0 48 48" xml:space="preserve">
<path d="M33.751,34.348c-0.166,0.026-0.904,0.055-1.859,0.06c-0.245-0.485-0.461-1.757-0.537-2.205
	c-0.055-0.325-0.092-0.541-0.135-0.708V19.729h-0.005c-0.025-1.303-0.197-3.325-0.619-4.366c-0.424-1.054-1.029-1.918-1.801-2.569
	c-0.752-0.63-1.643-1.095-2.646-1.382C25.081,11.108,23.702,11,22.767,11c-1.147,0-2.257,0.154-3.298,0.459
	c-1.079,0.317-2.043,0.825-2.866,1.511c-0.83,0.692-1.511,1.59-2.023,2.664c-0.511,1.062-0.812,2.351-0.895,3.826l1.996,0.113
	c0.069-1.214,0.305-2.248,0.702-3.076c0.389-0.815,0.894-1.485,1.5-1.991c0.611-0.509,1.335-0.889,2.148-1.128
	C20.889,13.127,21.809,13,22.767,13c0.99,0,2.129,0.135,2.833,0.336c0.732,0.209,1.375,0.542,1.908,0.989
	c0.517,0.437,0.932,1.036,1.233,1.786c0.259,0.638,0.438,2.246,0.472,3.534h-0.135c0,0.318-0.044,0.681-0.13,1.072
	C28.885,21,28.751,21.186,28.7,21.217c-0.355,0.16-0.841,0.291-1.442,0.389c-0.67,0.109-1.247,0.192-1.691,0.244l-3.703,0.27
	c-7.298,0.93-8.829,4.638-8.829,7.584c0,1.234,0.247,2.324,0.732,3.236c0.476,0.899,1.131,1.671,1.947,2.293
	c0.805,0.611,1.74,1.066,2.78,1.351C19.499,36.859,20.557,37,21.638,37c1.93,0,3.957-0.378,5.421-1.012
	c1.046-0.45,1.842-1.264,2.576-2.121c0.299,1.305,0.81,2.541,1.981,2.541c1.448,0,2.33-0.041,2.619-0.122L33.751,34.348z
	 M29.22,31.265c-0.222,0.25-0.441,0.513-0.662,0.777c-0.719,0.861-1.463,1.753-2.291,2.11C25.057,34.675,23.283,35,21.638,35
	c-0.901,0-1.78-0.116-2.614-0.346c-0.793-0.217-1.499-0.559-2.098-1.013c-0.593-0.452-1.048-0.987-1.393-1.64
	c-0.331-0.622-0.499-1.396-0.499-2.299c0-1.162,0-4.697,7.027-5.595l3.69-0.269c0.511-0.058,1.121-0.145,1.828-0.26
	c0.64-0.104,1.18-0.241,1.64-0.415V31.265z"/>
</svg>
