<?xml version="1.0" encoding="utf-8"?>
<!-- Generator: Adobe Illustrator 16.0.0, SVG Export Plug-In . SVG Version: 6.00 Build 0)  -->
<!DOCTYPE svg PUBLIC "-//W3C//DTD SVG 1.1//EN" "http://www.w3.org/Graphics/SVG/1.1/DTD/svg11.dtd">
<svg version="1.1" xmlns="http://www.w3.org/2000/svg" xmlns:xlink="http://www.w3.org/1999/xlink" x="0px" y="0px" width="18px"
	 height="18px" viewBox="0 0 18 18" enable-background="new 0 0 18 18" xml:space="preserve">
<g id="Layer_2">
</g>
<g id="Layer_1">
	<g>
		<path fill="none" stroke="#000000" stroke-miterlimit="10" d="M9,9c0,0-0.139,1.625,1.25,1.625S11.777,9.5,11.777,9.5
			c0-1.381-0.444-2.917-2.777-2.917S6.223,8.119,6.223,9.5s2.152,2.5,4.475,1.979"/>
	</g>
	<polygon points="15,15 3,15 3,8 4,8 4,14 14,14 14,4 8,4 8,3 15,3 	"/>
	<polygon points="5,2 5,4.293 2.5,1.793 1.792,2.5 4.293,5 2,5 2,6 6,6 6,2 	"/>
	<path d="M9.902,9.49c-0.224,0.571-0.828,0.899-1.353,0.733c-0.523-0.167-0.77-0.765-0.545-1.336
		c0.222-0.569,0.829-0.896,1.354-0.729C9.883,8.324,10.127,8.921,9.902,9.49z"/>
</g>
<g id="mapa_do_projeto" display="none">
</g>
<g id="menu_e_tooltip" display="none">
</g>
</svg>
